{
    "asset" : {
        "generator" : "Khronos glTF Blender I/O v3.4.50",
        "version" : "2.0"
    },
    "scene" : 0,
    "scenes" : [
        {
            "name" : "Scene",
            "nodes" : [
                1,
                3,
                5,
                7,
                9,
                10,
                11,
                12
            ]
        }
    ],
    "nodes" : [
        {
            "mesh" : 0,
            "name" : "r32_body",
            "scale" : [
                0.38530126214027405,
                0.38530126214027405,
                0.38530126214027405
            ],
            "translation" : [
                0,
                -0.18835468590259552,
                0
            ]
        },
        {
            "children" : [
                0
            ],
            "name" : "Empty",
            "rotation" : [
                -0.017446424812078476,
                -0.0004568507429212332,
                0.02617296390235424,
                0.9995050430297852
            ],
            "scale" : [
                2.595371723175049,
                2.595371723175049,
                2.595371723175049
            ],
            "translation" : [
                0,
                0.4888504445552826,
                0
            ]
        },
        {
            "mesh" : 1,
            "name" : "r32_w_0"
        },
        {
            "children" : [
                2
            ],
            "name" : "Empty.001",
            "rotation" : [
                0,
                -0.30070579051971436,
                0,
                0.9537169933319092
            ],
            "translation" : [
                0.7486956119537354,
                0.3289112448692322,
                1.2933685779571533
            ]
        },
        {
            "mesh" : 1,
            "name" : "r32_w_2"
        },
        {
            "children" : [
                4
            ],
            "name" : "Empty.002",
            "translation" : [
                0.7486956119537354,
                0.3289112448692322,
                -1.3182299137115479
            ]
        },
        {
            "mesh" : 1,
            "name" : "r32_w_1",
            "rotation" : [
                -1,
                0,
                0,
                4.371138828673793e-08
            ],
            "scale" : [
                -1,
                -1,
                -1
            ]
        },
        {
            "children" : [
                6
            ],
            "name" : "Empty.003",
            "rotation" : [
                0,
                -0.30070579051971436,
                0,
                0.9537169933319092
            ],
            "translation" : [
                -0.7486956119537354,
                0.3289112448692322,
                1.2933685779571533
            ]
        },
        {
            "mesh" : 1,
            "name" : "r32_w_3",
            "rotation" : [
                -1,
                0,
                0,
                4.371138828673793e-08
            ],
            "scale" : [
                -1,
                -1,
                -1
            ]
        },
        {
            "children" : [
                8
            ],
            "name" : "Empty.004",
            "translation" : [
                -0.7486956119537354,
                0.3289112448692322,
                -1.3182299137115479
            ]
        },
        {
            "mesh" : 2,
            "name" : "Plane"
        },
        {
            "mesh" : 3,
            "name" : "Plane.001"
        },
        {
            "mesh" : 4,
            "name" : "Circle"
        }
    ],
    "materials" : [
        {
            "emissiveFactor" : [
                0.022040870040655136,
                0.120182104408741,
                0.34285712242126465
            ],
            "emissiveTexture" : {
                "index" : 0
            },
            "name" : "R32_Col",
            "pbrMetallicRoughness" : {
                "baseColorFactor" : [
                    0,
                    0,
                    0,
                    1
                ]
            }
        },
        {
            "emissiveFactor" : [
                1,
                1,
                1
            ],
            "emissiveTexture" : {
                "index" : 1
            },
            "name" : "R32_Pal",
            "pbrMetallicRoughness" : {
                "baseColorFactor" : [
                    0,
                    0,
                    0,
                    1
                ]
            }
        },
        {
            "alphaMode" : "BLEND",
            "emissiveFactor" : [
                1,
                1,
                1
            ],
            "emissiveTexture" : {
                "index" : 2
            },
            "name" : "R32_Trans",
            "pbrMetallicRoughness" : {
                "baseColorFactor" : [
                    0,
                    0,
                    0,
                    1
                ]
            }
        },
        {
            "name" : "R32_Outline",
            "pbrMetallicRoughness" : {}
        },
        {
            "alphaCutoff" : 0.5,
            "alphaMode" : "MASK",
            "emissiveFactor" : [
                1,
                1,
                1
            ],
            "emissiveTexture" : {
                "index" : 3
            },
            "name" : "noise",
            "pbrMetallicRoughness" : {
                "baseColorFactor" : [
                    0,
                    0,
                    0,
                    1
                ]
            }
        },
        {
            "alphaMode" : "BLEND",
            "emissiveFactor" : [
                0.25,
                0.25,
                0.25
            ],
            "emissiveTexture" : {
                "index" : 4
            },
            "name" : "noise.001",
            "pbrMetallicRoughness" : {
                "baseColorFactor" : [
                    0,
                    0,
                    0,
                    1
                ]
            }
        }
    ],
    "meshes" : [
        {
            "name" : "Cylinder.006",
            "primitives" : [
                {
                    "attributes" : {
                        "POSITION" : 0,
                        "TEXCOORD_0" : 1,
                        "NORMAL" : 2
                    },
                    "indices" : 3,
                    "material" : 0
                },
                {
                    "attributes" : {
                        "POSITION" : 4,
                        "TEXCOORD_0" : 5,
                        "NORMAL" : 6
                    },
                    "indices" : 7,
                    "material" : 1
                },
                {
                    "attributes" : {
                        "POSITION" : 8,
                        "TEXCOORD_0" : 9,
                        "NORMAL" : 10
                    },
                    "indices" : 11,
                    "material" : 2
                },
                {
                    "attributes" : {
                        "POSITION" : 12,
                        "TEXCOORD_0" : 13,
                        "NORMAL" : 14
                    },
                    "indices" : 15,
                    "material" : 3
                }
            ]
        },
        {
            "name" : "Cylinder.004",
            "primitives" : [
                {
                    "attributes" : {
                        "POSITION" : 16,
                        "TEXCOORD_0" : 17,
                        "NORMAL" : 18
                    },
                    "indices" : 19,
                    "material" : 1
                },
                {
                    "attributes" : {
                        "POSITION" : 20,
                        "TEXCOORD_0" : 21,
                        "NORMAL" : 22
                    },
                    "indices" : 23,
                    "material" : 3
                }
            ]
        },
        {
            "name" : "Plane",
            "primitives" : [
                {
                    "attributes" : {
                        "POSITION" : 24,
                        "TEXCOORD_0" : 25,
                        "NORMAL" : 26
                    },
                    "indices" : 27,
                    "material" : 4
                }
            ]
        },
        {
            "name" : "Plane.002",
            "primitives" : [
                {
                    "attributes" : {
                        "POSITION" : 28,
                        "TEXCOORD_0" : 29,
                        "NORMAL" : 30
                    },
                    "indices" : 31,
                    "material" : 5
                }
            ]
        },
        {
            "name" : "Circle",
            "primitives" : [
                {
                    "attributes" : {
                        "POSITION" : 32,
                        "TEXCOORD_0" : 33,
                        "NORMAL" : 34
                    },
                    "indices" : 35,
                    "material" : 4
                }
            ]
        }
    ],
    "textures" : [
        {
            "sampler" : 0,
            "source" : 0
        },
        {
            "sampler" : 0,
            "source" : 1
        },
        {
            "sampler" : 0,
            "source" : 1
        },
        {
            "sampler" : 1,
            "source" : 2
        },
        {
            "sampler" : 1,
            "source" : 3
        }
    ],
    "images" : [
        {
            "bufferView" : 4,
            "mimeType" : "image/png",
            "name" : "stylized_r32_color"
        },
        {
            "bufferView" : 9,
            "mimeType" : "image/png",
            "name" : "stylized_r32_pal"
        },
        {
            "bufferView" : 30,
            "mimeType" : "image/png",
            "name" : "NOISE"
        },
        {
            "bufferView" : 35,
            "mimeType" : "image/png",
            "name" : "NOISe_white"
        }
    ],
    "accessors" : [
        {
            "bufferView" : 0,
            "componentType" : 5126,
            "count" : 1387,
            "max" : [
                0.9741896390914917,
                1.3174041509628296,
                2.2731237411499023
            ],
            "min" : [
                -0.9741896390914917,
                0.17885076999664307,
                -2.266660213470459
            ],
            "type" : "VEC3"
        },
        {
            "bufferView" : 1,
            "componentType" : 5126,
            "count" : 1387,
            "type" : "VEC2"
        },
        {
            "bufferView" : 2,
            "componentType" : 5126,
            "count" : 1387,
            "type" : "VEC3"
        },
        {
            "bufferView" : 3,
            "componentType" : 5123,
            "count" : 3468,
            "type" : "SCALAR"
        },
        {
            "bufferView" : 5,
            "componentType" : 5126,
            "count" : 2194,
            "max" : [
                0.9646745920181274,
                1.296654462814331,
                2.228158712387085
            ],
            "min" : [
                -0.9646745920181274,
                0.15536853671073914,
                -2.277693033218384
            ],
            "type" : "VEC3"
        },
        {
            "bufferView" : 6,
            "componentType" : 5126,
            "count" : 2194,
            "type" : "VEC2"
        },
        {
            "bufferView" : 7,
            "componentType" : 5126,
            "count" : 2194,
            "type" : "VEC3"
        },
        {
            "bufferView" : 8,
            "componentType" : 5123,
            "count" : 4908,
            "type" : "SCALAR"
        },
        {
            "bufferView" : 10,
            "componentType" : 5126,
            "count" : 144,
            "max" : [
                0.8441092371940613,
                1.284531831741333,
                2.1805496215820312
            ],
            "min" : [
                -0.8441092371940613,
                0.5546532869338989,
                -1.6142487525939941
            ],
            "type" : "VEC3"
        },
        {
            "bufferView" : 11,
            "componentType" : 5126,
            "count" : 144,
            "type" : "VEC2"
        },
        {
            "bufferView" : 12,
            "componentType" : 5126,
            "count" : 144,
            "type" : "VEC3"
        },
        {
            "bufferView" : 13,
            "componentType" : 5123,
            "count" : 204,
            "type" : "SCALAR"
        },
        {
            "bufferView" : 14,
            "componentType" : 5126,
            "count" : 3351,
            "max" : [
                0.9841017723083496,
                1.3274033069610596,
                2.2799878120422363
            ],
            "min" : [
                -0.9841017723083496,
                0.14537104964256287,
                -2.28579044342041
            ],
            "type" : "VEC3"
        },
        {
            "bufferView" : 15,
            "componentType" : 5126,
            "count" : 3351,
            "type" : "VEC2"
        },
        {
            "bufferView" : 16,
            "componentType" : 5126,
            "count" : 3351,
            "type" : "VEC3"
        },
        {
            "bufferView" : 17,
            "componentType" : 5123,
            "count" : 7830,
            "type" : "SCALAR"
        },
        {
            "bufferView" : 18,
            "componentType" : 5126,
            "count" : 728,
            "max" : [
                0.1525000035762787,
                0.33428823947906494,
                0.33428800106048584
            ],
            "min" : [
                -0.1525000035762787,
                -0.33428823947906494,
                -0.33428800106048584
            ],
            "type" : "VEC3"
        },
        {
            "bufferView" : 19,
            "componentType" : 5126,
            "count" : 728,
            "type" : "VEC2"
        },
        {
            "bufferView" : 20,
            "componentType" : 5126,
            "count" : 728,
            "type" : "VEC3"
        },
        {
            "bufferView" : 21,
            "componentType" : 5123,
            "count" : 2148,
            "type" : "SCALAR"
        },
        {
            "bufferView" : 22,
            "componentType" : 5126,
            "count" : 872,
            "max" : [
                0.16243863105773926,
                0.3442882299423218,
                0.3442879915237427
            ],
            "min" : [
                -0.16243863105773926,
                -0.3442882299423218,
                -0.3442879915237427
            ],
            "type" : "VEC3"
        },
        {
            "bufferView" : 23,
            "componentType" : 5126,
            "count" : 872,
            "type" : "VEC2"
        },
        {
            "bufferView" : 24,
            "componentType" : 5126,
            "count" : 872,
            "type" : "VEC3"
        },
        {
            "bufferView" : 25,
            "componentType" : 5123,
            "count" : 2460,
            "type" : "SCALAR"
        },
        {
            "bufferView" : 26,
            "componentType" : 5126,
            "count" : 64,
            "max" : [
                3.203066349029541,
                -0.011789068579673767,
                -1.3219857215881348
            ],
            "min" : [
                -0.8642271757125854,
                -0.011789068579673767,
                -6.219730854034424
            ],
            "type" : "VEC3"
        },
        {
            "bufferView" : 27,
            "componentType" : 5126,
            "count" : 64,
            "type" : "VEC2"
        },
        {
            "bufferView" : 28,
            "componentType" : 5126,
            "count" : 64,
            "type" : "VEC3"
        },
        {
            "bufferView" : 29,
            "componentType" : 5123,
            "count" : 96,
            "type" : "SCALAR"
        },
        {
            "bufferView" : 31,
            "componentType" : 5126,
            "count" : 280,
            "max" : [
                3.3914859294891357,
                1.058870792388916,
                0.4051334857940674
            ],
            "min" : [
                -1.022359013557434,
                0.19150960445404053,
                -6.612837314605713
            ],
            "type" : "VEC3"
        },
        {
            "bufferView" : 32,
            "componentType" : 5126,
            "count" : 280,
            "type" : "VEC2"
        },
        {
            "bufferView" : 33,
            "componentType" : 5126,
            "count" : 280,
            "type" : "VEC3"
        },
        {
            "bufferView" : 34,
            "componentType" : 5123,
            "count" : 420,
            "type" : "SCALAR"
        },
        {
            "bufferView" : 36,
            "componentType" : 5126,
            "count" : 16,
            "max" : [
                2.9144320487976074,
                0,
                2.9144320487976074
            ],
            "min" : [
                -2.9144320487976074,
                0,
                -2.9144320487976074
            ],
            "type" : "VEC3"
        },
        {
            "bufferView" : 37,
            "componentType" : 5126,
            "count" : 16,
            "type" : "VEC2"
        },
        {
            "bufferView" : 38,
            "componentType" : 5126,
            "count" : 16,
            "type" : "VEC3"
        },
        {
            "bufferView" : 39,
            "componentType" : 5123,
            "count" : 42,
            "type" : "SCALAR"
        }
    ],
    "bufferViews" : [
        {
            "buffer" : 0,
            "byteLength" : 16644,
            "byteOffset" : 0,
            "target" : 34962
        },
        {
            "buffer" : 0,
            "byteLength" : 11096,
            "byteOffset" : 16644,
            "target" : 34962
        },
        {
            "buffer" : 0,
            "byteLength" : 16644,
            "byteOffset" : 27740,
            "target" : 34962
        },
        {
            "buffer" : 0,
            "byteLength" : 6936,
            "byteOffset" : 44384,
            "target" : 34963
        },
        {
            "buffer" : 0,
            "byteLength" : 146,
            "byteOffset" : 51320
        },
        {
            "buffer" : 0,
            "byteLength" : 26328,
            "byteOffset" : 51468,
            "target" : 34962
        },
        {
            "buffer" : 0,
            "byteLength" : 17552,
            "byteOffset" : 77796,
            "target" : 34962
        },
        {
            "buffer" : 0,
            "byteLength" : 26328,
            "byteOffset" : 95348,
            "target" : 34962
        },
        {
            "buffer" : 0,
            "byteLength" : 9816,
            "byteOffset" : 121676,
            "target" : 34963
        },
        {
            "buffer" : 0,
            "byteLength" : 198,
            "byteOffset" : 131492
        },
        {
            "buffer" : 0,
            "byteLength" : 1728,
            "byteOffset" : 131692,
            "target" : 34962
        },
        {
            "buffer" : 0,
            "byteLength" : 1152,
            "byteOffset" : 133420,
            "target" : 34962
        },
        {
            "buffer" : 0,
            "byteLength" : 1728,
            "byteOffset" : 134572,
            "target" : 34962
        },
        {
            "buffer" : 0,
            "byteLength" : 408,
            "byteOffset" : 136300,
            "target" : 34963
        },
        {
            "buffer" : 0,
            "byteLength" : 40212,
            "byteOffset" : 136708,
            "target" : 34962
        },
        {
            "buffer" : 0,
            "byteLength" : 26808,
            "byteOffset" : 176920,
            "target" : 34962
        },
        {
            "buffer" : 0,
            "byteLength" : 40212,
            "byteOffset" : 203728,
            "target" : 34962
        },
        {
            "buffer" : 0,
            "byteLength" : 15660,
            "byteOffset" : 243940,
            "target" : 34963
        },
        {
            "buffer" : 0,
            "byteLength" : 8736,
            "byteOffset" : 259600,
            "target" : 34962
        },
        {
            "buffer" : 0,
            "byteLength" : 5824,
            "byteOffset" : 268336,
            "target" : 34962
        },
        {
            "buffer" : 0,
            "byteLength" : 8736,
            "byteOffset" : 274160,
            "target" : 34962
        },
        {
            "buffer" : 0,
            "byteLength" : 4296,
            "byteOffset" : 282896,
            "target" : 34963
        },
        {
            "buffer" : 0,
            "byteLength" : 10464,
            "byteOffset" : 287192,
            "target" : 34962
        },
        {
            "buffer" : 0,
            "byteLength" : 6976,
            "byteOffset" : 297656,
            "target" : 34962
        },
        {
            "buffer" : 0,
            "byteLength" : 10464,
            "byteOffset" : 304632,
            "target" : 34962
        },
        {
            "buffer" : 0,
            "byteLength" : 4920,
            "byteOffset" : 315096,
            "target" : 34963
        },
        {
            "buffer" : 0,
            "byteLength" : 768,
            "byteOffset" : 320016,
            "target" : 34962
        },
        {
            "buffer" : 0,
            "byteLength" : 512,
            "byteOffset" : 320784,
            "target" : 34962
        },
        {
            "buffer" : 0,
            "byteLength" : 768,
            "byteOffset" : 321296,
            "target" : 34962
        },
        {
            "buffer" : 0,
            "byteLength" : 192,
            "byteOffset" : 322064,
            "target" : 34963
        },
        {
            "buffer" : 0,
            "byteLength" : 787,
            "byteOffset" : 322256
        },
        {
            "buffer" : 0,
            "byteLength" : 3360,
            "byteOffset" : 323044,
            "target" : 34962
        },
        {
            "buffer" : 0,
            "byteLength" : 2240,
            "byteOffset" : 326404,
            "target" : 34962
        },
        {
            "buffer" : 0,
            "byteLength" : 3360,
            "byteOffset" : 328644,
            "target" : 34962
        },
        {
            "buffer" : 0,
            "byteLength" : 840,
            "byteOffset" : 332004,
            "target" : 34963
        },
        {
            "buffer" : 0,
            "byteLength" : 787,
            "byteOffset" : 332844
        },
        {
            "buffer" : 0,
            "byteLength" : 192,
            "byteOffset" : 333632,
            "target" : 34962
        },
        {
            "buffer" : 0,
            "byteLength" : 128,
            "byteOffset" : 333824,
            "target" : 34962
        },
        {
            "buffer" : 0,
            "byteLength" : 192,
            "byteOffset" : 333952,
            "target" : 34962
        },
        {
            "buffer" : 0,
            "byteLength" : 84,
            "byteOffset" : 334144,
            "target" : 34963
        }
    ],
    "samplers" : [
        {
            "magFilter" : 9728,
            "minFilter" : 9984
        },
        {
            "magFilter" : 9729,
            "minFilter" : 9987
        }
    ],
    "buffers" : [
        {
            "byteLength" : 334228,
            "uri" : "data:application/octet-stream;base64,"
        }
    ]
}
